<?xml version="1.0" standalone="no"?>
<!DOCTYPE svg PUBLIC "-//W3C//DTD SVG 20010904//EN"
 "http://www.w3.org/TR/2001/REC-SVG-20010904/DTD/svg10.dtd">
<svg version="1.0" xmlns="http://www.w3.org/2000/svg"
 width="303.000000pt" height="106.000000pt" viewBox="0 0 303.000000 106.000000"
 preserveAspectRatio="xMidYMid meet">

<g transform="translate(0.000000,106.000000) scale(0.100000,-0.100000)"
fill="#000000" stroke="none">
<path d="M0 530 l0 -530 1515 0 1515 0 0 530 0 530 -1515 0 -1515 0 0 -530z
m1570 -5 l0 -415 -65 0 -65 0 0 415 0 415 65 0 65 0 0 -415z m268 -2 l2 -413
-65 0 -65 0 0 415 0 416 63 -3 62 -3 3 -412z m254 370 c29 -26 24 -87 -8 -112
-15 -12 -34 -21 -44 -21 -10 0 -29 9 -44 21 -31 24 -36 81 -9 111 20 23 80 24
105 1z m-986 -242 c23 -10 45 -24 48 -30 12 -19 26 -12 26 14 0 24 3 25 60 25
l60 0 0 -275 0 -275 -60 0 c-60 0 -60 0 -60 30 l0 30 -43 -31 c-52 -37 -133
-48 -203 -29 -62 18 -147 96 -171 158 -25 66 -24 182 4 243 25 57 83 115 137
140 54 25 148 25 202 0z m1415 9 c20 -6 53 -25 75 -44 l39 -34 -39 -41 c-40
-41 -40 -41 -60 -22 -60 56 -186 53 -186 -4 0 -30 12 -38 95 -65 150 -49 185
-83 185 -180 0 -42 -6 -64 -24 -91 -38 -55 -85 -74 -186 -74 -75 0 -91 3 -137
29 -29 16 -60 37 -70 48 -16 18 -15 20 22 58 l38 39 32 -25 c46 -35 131 -52
170 -33 33 16 44 51 24 75 -6 8 -44 24 -83 35 -147 44 -192 89 -184 186 6 66
29 100 88 131 49 24 137 30 201 12z m-2161 -176 c43 -104 76 -170 80 -162 4 7
38 86 76 176 l69 162 67 0 67 0 -19 -43 c-10 -23 -66 -146 -124 -272 l-105
-230 -38 -3 -38 -2 -120 265 c-66 146 -121 270 -123 275 -2 6 25 10 65 10 l69
0 74 -176z m1740 -99 l0 -275 -60 0 -60 0 0 275 0 275 60 0 60 0 0 -275z m791
-144 c32 -33 36 -58 14 -100 -39 -77 -155 -40 -155 49 0 30 53 80 85 80 16 0
38 -12 56 -29z"/>
<path d="M938 526 c-94 -66 -85 -242 16 -290 79 -37 172 -9 208 64 22 42 23
130 4 168 -29 55 -62 76 -129 80 -53 3 -67 0 -99 -22z"/>
</g>
</svg>
